<svg viewBox="0 0 1440 480" xmlns="http://www.w3.org/2000/svg" fill-rule="evenodd" clip-rule="evenodd" stroke-linecap="round" stroke-linejoin="round" stroke-miterlimit="1.5" stroke-width="1" opacity="0.3" stroke="#000000">
  <g fill="none" clip-path="url(#a)">
    <path d="M-4.281 83.907S326.227-56.015 779.095 141.33c452.867 197.346 665.186-56.437 665.186-56.437"/>
    <path d="M1444.28 5.219s-320.81 213.937-669.464 193.575C426.162 178.432-4.282 32.771-4.282 32.771"/>
    <path d="M1444.28 139.406s-161.871-99.96-399.411-68.863c-237.54 31.096-620.132 270.78-1049.15 112.584"/>
    <path d="M1444.28 196.516s-331.729 211.732-695.316 149.182C385.376 283.148 278.36 124.737-4.282 122.712"/>
    <path d="M-4.281 442.542s397.659-233.541 821.222-155.953c543.481 99.555 627.34 67.521 627.34 67.521"/>
    <path d="M1444.28 444.696s-105.802-144.393-354.682-157.284C804.451 272.643 608.053 593.685-4.282 309.654"/>
    <path d="M1444.28 474.781s-107.173-2.209-304.116-51.886C943.221 373.217 578.053 170.622 195.571 188.53 94.133 193.279-4.282 246.518-4.282 246.518"/>
  </g>
</svg>